<svg xmlns="http://www.w3.org/2000/svg" viewBox="0 0 720 230" width="100%">
  <defs>
    <marker orient="auto-start-reverse" markerHeight="6" markerWidth="6" refY="5" refX="8" viewBox="0 0 10 10" id="arr2">
      <path stroke-linejoin="round" stroke-linecap="round" stroke-width="1.5" stroke="#666" fill="none" d="M2 1L8 5L2 9"></path>
    </marker>
  </defs>

  
  <rect stroke-dasharray="6 4" stroke-width="2" stroke="#7c3aed" fill="#f3f0ff" rx="14" height="190" width="320" y="15" x="20"></rect>
  <text font-family="system-ui, sans-serif" fill="#5b21b6" font-weight="700" font-size="13" text-anchor="middle" y="35" x="180">JavaScript World (Cheap)</text>

  
  <rect stroke-width="2" stroke="#14b8a6" fill="#ffffff" rx="10" height="135" width="130" y="55" x="40"></rect>
  <text font-family="system-ui, sans-serif" fill="#0f766e" font-weight="600" font-size="12" text-anchor="middle" y="72" x="105">VDOM (Previous)</text>
  <rect stroke-width="1" stroke="#14b8a6" fill="#ecfdf5" rx="3" height="18" width="110" y="85" x="50"></rect>
  <text font-family="monospace" fill="#0f766e" font-size="10" text-anchor="middle" y="93" x="105">&lt;App&gt;</text>
  <rect stroke-width="1" stroke="#14b8a6" fill="#ecfdf5" rx="3" height="18" width="110" y="107" x="50"></rect>
  <text font-family="monospace" fill="#0f766e" font-size="10" text-anchor="middle" y="115" x="105">&lt;Header&gt;</text>
  <rect stroke-width="1" stroke="#14b8a6" fill="#ecfdf5" rx="3" height="18" width="110" y="129" x="50"></rect>
  <text font-family="monospace" fill="#0f766e" font-size="10" text-anchor="middle" y="137" x="105">&lt;List&gt;</text>
  <rect stroke-width="1.5" stroke="#f59e0b" fill="#fef3c7" rx="3" height="18" width="110" y="151" x="50"></rect>
  <text font-family="monospace" fill="#d97706" font-size="10" text-anchor="middle" y="159" x="105">price = $25</text>
  <rect stroke-width="1" stroke="#14b8a6" fill="#ecfdf5" rx="3" height="18" width="110" y="173" x="50"></rect>
  <text font-family="monospace" fill="#0f766e" font-size="10" text-anchor="middle" y="181" x="105">&lt;Footer&gt;</text>

  
  <rect stroke-width="2" stroke="#14b8a6" fill="#ffffff" rx="10" height="135" width="130" y="55" x="190"></rect>
  <text font-family="system-ui, sans-serif" fill="#0f766e" font-weight="600" font-size="12" text-anchor="middle" y="72" x="255">VDOM (Next)</text>
  <rect stroke-width="1" stroke="#14b8a6" fill="#ecfdf5" rx="3" height="18" width="110" y="85" x="200"></rect>
  <text font-family="monospace" fill="#0f766e" font-size="10" text-anchor="middle" y="93" x="255">&lt;App&gt;</text>
  <rect stroke-width="1" stroke="#14b8a6" fill="#ecfdf5" rx="3" height="18" width="110" y="107" x="200"></rect>
  <text font-family="monospace" fill="#0f766e" font-size="10" text-anchor="middle" y="115" x="255">&lt;Header&gt;</text>
  <rect stroke-width="1" stroke="#14b8a6" fill="#ecfdf5" rx="3" height="18" width="110" y="129" x="200"></rect>
  <text font-family="monospace" fill="#0f766e" font-size="10" text-anchor="middle" y="137" x="255">&lt;List&gt;</text>
  <rect stroke-width="1.5" stroke="#f97316" fill="#fee2e2" rx="3" height="18" width="110" y="151" x="200"></rect>
  <text font-family="monospace" fill="#ea580c" font-size="10" text-anchor="middle" y="159" x="255">price = $30</text>
  <rect stroke-width="1" stroke="#14b8a6" fill="#ecfdf5" rx="3" height="18" width="110" y="173" x="200"></rect>
  <text font-family="monospace" fill="#0f766e" font-size="10" text-anchor="middle" y="181" x="255">&lt;Footer&gt;</text>

  <text font-family="system-ui, sans-serif" fill="#7c3aed" font-size="11.5" text-anchor="middle" y="205" x="180">Diff finds only 1 change</text>

  
  <line marker-end="url(#arr2)" stroke-width="2" stroke="#64748b" y2="122" x2="390" y1="122" x1="340"></line>
  <text font-family="system-ui, sans-serif" fill="#64748b" font-size="11" text-anchor="middle" y="112" x="365">PATCH</text>

  
  <rect stroke-dasharray="6 4" stroke-width="2" stroke="#3b82f6" fill="#eff6ff" rx="14" height="190" width="310" y="15" x="400"></rect>
  <text font-family="system-ui, sans-serif" fill="#1e40af" font-weight="700" font-size="13" text-anchor="middle" y="35" x="555">Browser World (Expensive)</text>

  
  <rect stroke-width="2" stroke="#3b82f6" fill="#ffffff" rx="10" height="135" width="270" y="55" x="420"></rect>
  <text font-family="system-ui, sans-serif" fill="#1e40af" font-weight="600" font-size="12" text-anchor="middle" y="72" x="555">Real DOM</text>
  <rect stroke-width="1" stroke="#3b82f6" fill="#eff6ff" rx="3" height="18" width="250" y="85" x="430"></rect>
  <text font-family="monospace" fill="#1e40af" font-size="10" text-anchor="middle" y="93" x="555">&lt;div id="root"&gt;</text>
  <rect stroke-width="1" stroke="#3b82f6" fill="#eff6ff" rx="3" height="18" width="250" y="107" x="430"></rect>
  <text font-family="monospace" fill="#1e40af" font-size="10" text-anchor="middle" y="115" x="555">&lt;header&gt;...&lt;/header&gt;</text>
  <rect stroke-width="1" stroke="#3b82f6" fill="#eff6ff" rx="3" height="18" width="250" y="129" x="430"></rect>
  <text font-family="monospace" fill="#1e40af" font-size="10" text-anchor="middle" y="137" x="555">&lt;ul&gt;...&lt;/ul&gt;</text>
  <rect stroke-width="1.5" stroke="#f97316" fill="#fee2e2" rx="3" height="18" width="250" y="151" x="430"></rect>
  <text font-family="monospace" fill="#ea580c" font-size="10" text-anchor="middle" y="159" x="555">textContent = "$30" ← only change</text>
  <rect stroke-width="1" stroke="#3b82f6" fill="#eff6ff" rx="3" height="18" width="250" y="173" x="430"></rect>
  <text font-family="monospace" fill="#1e40af" font-size="10" text-anchor="middle" y="181" x="555">&lt;footer&gt;...&lt;/footer&gt;</text>
</svg>
